<svg xmlns="http://www.w3.org/2000/svg" width="495" height="383" viewBox="0 0 495 383">
  <rect width="495" height="383" rx="6" fill="#0d1117" stroke="#30363d" stroke-width="1"/>

  <!-- Title -->
  <text x="25" y="35" fill="#58a6ff" font-size="18" font-weight="600" font-family="Segoe UI, sans-serif">Deploy Stats</text>
  <text x="25" y="55" fill="#8b949e" font-size="12" font-family="Segoe UI, sans-serif">All repos (public + private) · updated Apr 12, 2026</text>

  <!-- Stats row -->
  <g transform="translate(25, 80)">
    <g>
      <text x="0" y="0" fill="#c9d1d9" font-size="28" font-weight="700" font-family="Segoe UI, sans-serif">8,161</text>
      <text x="0" y="18" fill="#8b949e" font-size="11" font-family="Segoe UI, sans-serif">total commits</text>
    </g>
    <g transform="translate(140, 0)">
      <text x="0" y="0" fill="#c9d1d9" font-size="28" font-weight="700" font-family="Segoe UI, sans-serif">4,167</text>
      <text x="0" y="18" fill="#8b949e" font-size="11" font-family="Segoe UI, sans-serif">last 12 months</text>
    </g>
    <g transform="translate(290, 0)">
      <text x="0" y="0" fill="#c9d1d9" font-size="28" font-weight="700" font-family="Segoe UI, sans-serif">125</text>
      <text x="0" y="18" fill="#8b949e" font-size="11" font-family="Segoe UI, sans-serif">repos (103 public · 22 private)</text>
    </g>
  </g>

  <!-- Divider -->
  <line x1="25" y1="120" x2="470" y2="120" stroke="#21262d" stroke-width="1"/>

  <!-- Section header -->
  <text x="30" y="145" fill="#c9d1d9" font-size="13" font-weight="600" font-family="Segoe UI, sans-serif">Most active repos (last 12 months)</text>
  <text x="30" y="165" fill="#8b949e" font-size="11" font-family="Segoe UI, sans-serif">every commit = a deploy via unified deploy tool</text>

  <!-- Repo bars -->
  
    <g transform="translate(0, 195)">
      <text x="30" y="0" fill="#c9d1d9" font-size="12" font-family="Segoe UI, sans-serif">pilgri.ms (private)</text>
      <rect x="30" y="6" width="220" height="8" rx="4" fill="#58a6ff" opacity="0.8"/>
      <text x="258" y="15" fill="#8b949e" font-size="11" font-family="Segoe UI, sans-serif">1,309</text>
    </g>
    <g transform="translate(0, 223)">
      <text x="30" y="0" fill="#c9d1d9" font-size="12" font-family="Segoe UI, sans-serif">kicksaw (private)</text>
      <rect x="30" y="6" width="68" height="8" rx="4" fill="#58a6ff" opacity="0.8"/>
      <text x="106" y="15" fill="#8b949e" font-size="11" font-family="Segoe UI, sans-serif">410</text>
    </g>
    <g transform="translate(0, 251)">
      <text x="30" y="0" fill="#c9d1d9" font-size="12" font-family="Segoe UI, sans-serif">kumori (private)</text>
      <rect x="30" y="6" width="68" height="8" rx="4" fill="#58a6ff" opacity="0.8"/>
      <text x="106" y="15" fill="#8b949e" font-size="11" font-family="Segoe UI, sans-serif">408</text>
    </g>
    <g transform="translate(0, 279)">
      <text x="30" y="0" fill="#c9d1d9" font-size="12" font-family="Segoe UI, sans-serif">inroads (private)</text>
      <rect x="30" y="6" width="53" height="8" rx="4" fill="#58a6ff" opacity="0.8"/>
      <text x="91" y="15" fill="#8b949e" font-size="11" font-family="Segoe UI, sans-serif">316</text>
    </g>
    <g transform="translate(0, 307)">
      <text x="30" y="0" fill="#c9d1d9" font-size="12" font-family="Segoe UI, sans-serif">2manspades </text>
      <rect x="30" y="6" width="40" height="8" rx="4" fill="#58a6ff" opacity="0.8"/>
      <text x="78" y="15" fill="#8b949e" font-size="11" font-family="Segoe UI, sans-serif">242</text>
    </g>
    <g transform="translate(0, 335)">
      <text x="30" y="0" fill="#c9d1d9" font-size="12" font-family="Segoe UI, sans-serif">mr_beast_puzzle_private (private)</text>
      <rect x="30" y="6" width="39" height="8" rx="4" fill="#58a6ff" opacity="0.8"/>
      <text x="77" y="15" fill="#8b949e" font-size="11" font-family="Segoe UI, sans-serif">234</text>
    </g>
</svg>